<svg width="1210" height="237" viewBox="0 0 1210 237" fill="none" xmlns="http://www.w3.org/2000/svg">
<rect x="1.5" y="1.5" width="1207" height="234" rx="18.5" stroke="#F2C43E" stroke-width="3"/>
<rect x="792.5" y="33.5" width="120" height="120" rx="20" fill="#FFA693"/>
<path d="M820.135 197.5L821.683 184.9H822.655L821.107 197.5H820.135ZM813.313 194.08V193.09H824.203V194.08H813.313ZM815.455 197.5L817.003 184.9H817.993L816.427 197.5H815.455ZM813.889 189.31V188.32H824.779V189.31H813.889ZM828.564 191.002H835.224V192.154H828.564V191.002ZM828.708 197.5H827.376V184.9H836.016V186.052H828.708V197.5ZM839.955 191.002H846.615V192.154H839.955V191.002ZM840.099 197.5H838.767V184.9H847.407V186.052H840.099V197.5ZM847.544 197.5L853.304 184.9H854.618L860.378 197.5H858.974L853.682 185.674H854.222L848.93 197.5H847.544ZM849.812 194.134L850.208 193.054H857.534L857.93 194.134H849.812ZM866.389 197.608C865.273 197.608 864.331 197.362 863.563 196.87C862.795 196.366 862.213 195.646 861.817 194.71C861.421 193.762 861.223 192.628 861.223 191.308C861.223 189.88 861.463 188.686 861.943 187.726C862.435 186.754 863.113 186.022 863.977 185.53C864.841 185.038 865.843 184.792 866.983 184.792C867.547 184.792 868.087 184.846 868.603 184.954C869.119 185.062 869.575 185.236 869.971 185.476L869.449 186.52C869.125 186.304 868.753 186.154 868.333 186.07C867.913 185.974 867.469 185.926 867.001 185.926C865.645 185.926 864.559 186.358 863.743 187.222C862.939 188.086 862.537 189.376 862.537 191.092C862.537 191.356 862.549 191.686 862.573 192.082C862.609 192.466 862.681 192.85 862.789 193.234L862.339 192.892C862.471 192.268 862.729 191.74 863.113 191.308C863.497 190.864 863.977 190.528 864.553 190.3C865.129 190.072 865.759 189.958 866.443 189.958C867.283 189.958 868.021 190.114 868.657 190.426C869.293 190.738 869.791 191.176 870.151 191.74C870.511 192.304 870.691 192.97 870.691 193.738C870.691 194.518 870.505 195.202 870.133 195.79C869.761 196.366 869.245 196.816 868.585 197.14C867.937 197.452 867.205 197.608 866.389 197.608ZM866.335 196.51C866.935 196.51 867.463 196.402 867.919 196.186C868.387 195.958 868.753 195.64 869.017 195.232C869.281 194.812 869.413 194.326 869.413 193.774C869.413 192.946 869.125 192.286 868.549 191.794C867.985 191.302 867.217 191.056 866.245 191.056C865.597 191.056 865.033 191.176 864.553 191.416C864.073 191.656 863.695 191.986 863.419 192.406C863.143 192.814 863.005 193.282 863.005 193.81C863.005 194.266 863.131 194.704 863.383 195.124C863.635 195.532 864.007 195.868 864.499 196.132C865.003 196.384 865.615 196.51 866.335 196.51ZM876.116 184.792C877.232 184.792 878.174 185.044 878.942 185.548C879.71 186.04 880.292 186.754 880.688 187.69C881.084 188.626 881.282 189.76 881.282 191.092C881.282 192.508 881.036 193.702 880.544 194.674C880.064 195.646 879.392 196.378 878.528 196.87C877.664 197.362 876.662 197.608 875.522 197.608C874.958 197.608 874.418 197.554 873.902 197.446C873.398 197.338 872.942 197.164 872.534 196.924L873.056 195.88C873.38 196.096 873.752 196.252 874.172 196.348C874.604 196.432 875.048 196.474 875.504 196.474C876.86 196.474 877.94 196.042 878.744 195.178C879.56 194.314 879.968 193.024 879.968 191.308C879.968 191.032 879.95 190.702 879.914 190.318C879.89 189.934 879.824 189.55 879.716 189.166L880.166 189.508C880.046 190.132 879.788 190.666 879.392 191.11C879.008 191.542 878.528 191.872 877.952 192.1C877.388 192.328 876.758 192.442 876.062 192.442C875.234 192.442 874.496 192.286 873.848 191.974C873.212 191.662 872.714 191.224 872.354 190.66C871.994 190.096 871.814 189.43 871.814 188.662C871.814 187.87 872 187.186 872.372 186.61C872.744 186.034 873.254 185.59 873.902 185.278C874.562 184.954 875.3 184.792 876.116 184.792ZM876.17 185.89C875.57 185.89 875.036 186.004 874.568 186.232C874.112 186.448 873.752 186.76 873.488 187.168C873.224 187.576 873.092 188.062 873.092 188.626C873.092 189.454 873.374 190.114 873.938 190.606C874.514 191.098 875.288 191.344 876.26 191.344C876.908 191.344 877.472 191.224 877.952 190.984C878.444 190.744 878.822 190.414 879.086 189.994C879.362 189.574 879.5 189.106 879.5 188.59C879.5 188.122 879.374 187.684 879.122 187.276C878.87 186.868 878.498 186.538 878.006 186.286C877.514 186.022 876.902 185.89 876.17 185.89ZM886.747 197.608C885.835 197.608 884.971 197.464 884.155 197.176C883.351 196.876 882.703 196.48 882.211 195.988L882.841 194.962C883.249 195.382 883.795 195.73 884.479 196.006C885.175 196.282 885.931 196.42 886.747 196.42C887.791 196.42 888.589 196.192 889.141 195.736C889.705 195.28 889.987 194.668 889.987 193.9C889.987 193.132 889.711 192.52 889.159 192.064C888.619 191.608 887.761 191.38 886.585 191.38H885.685V190.426L889.573 185.548L889.753 186.052H882.733V184.9H890.833V185.818L886.945 190.696L886.315 190.282H886.801C888.313 190.282 889.441 190.618 890.185 191.29C890.941 191.962 891.319 192.826 891.319 193.882C891.319 194.59 891.151 195.226 890.815 195.79C890.479 196.354 889.969 196.798 889.285 197.122C888.613 197.446 887.767 197.608 886.747 197.608Z" fill="black"/>
<rect x="957.5" y="34.5" width="120" height="120" rx="20" fill="#FF5361"/>
<path d="M988.475 198.5L990.023 185.9H990.995L989.447 198.5H988.475ZM981.653 195.08V194.09H992.543V195.08H981.653ZM983.795 198.5L985.343 185.9H986.333L984.767 198.5H983.795ZM982.229 190.31V189.32H993.119V190.31H982.229ZM996.904 192.002H1003.56V193.154H996.904V192.002ZM997.048 198.5H995.716V185.9H1004.36V187.052H997.048V198.5ZM1008.29 192.002H1014.95V193.154H1008.29V192.002ZM1008.44 198.5H1007.11V185.9H1015.75V187.052H1008.44V198.5ZM1021.04 198.608C1020.14 198.608 1019.28 198.464 1018.47 198.176C1017.65 197.876 1017 197.48 1016.52 196.988L1017.15 195.962C1017.55 196.382 1018.09 196.73 1018.77 197.006C1019.47 197.282 1020.22 197.42 1021.02 197.42C1022.09 197.42 1022.9 197.186 1023.45 196.718C1024.02 196.238 1024.3 195.614 1024.3 194.846C1024.3 194.306 1024.17 193.844 1023.9 193.46C1023.65 193.064 1023.22 192.758 1022.61 192.542C1022 192.326 1021.16 192.218 1020.09 192.218H1017.41L1018.05 185.9H1024.95V187.052H1018.58L1019.24 186.422L1018.68 191.714L1018.02 191.066H1020.38C1021.65 191.066 1022.67 191.222 1023.44 191.534C1024.2 191.846 1024.76 192.284 1025.09 192.848C1025.44 193.4 1025.61 194.048 1025.61 194.792C1025.61 195.5 1025.45 196.148 1025.11 196.736C1024.77 197.312 1024.27 197.768 1023.6 198.104C1022.93 198.44 1022.07 198.608 1021.04 198.608ZM1030.93 198.608C1030.02 198.608 1029.16 198.464 1028.34 198.176C1027.54 197.876 1026.89 197.48 1026.4 196.988L1027.03 195.962C1027.44 196.382 1027.98 196.73 1028.67 197.006C1029.36 197.282 1030.12 197.42 1030.93 197.42C1031.98 197.42 1032.78 197.192 1033.33 196.736C1033.89 196.28 1034.17 195.668 1034.17 194.9C1034.17 194.132 1033.9 193.52 1033.35 193.064C1032.81 192.608 1031.95 192.38 1030.77 192.38H1029.87V191.426L1033.76 186.548L1033.94 187.052H1026.92V185.9H1035.02V186.818L1031.13 191.696L1030.5 191.282H1030.99C1032.5 191.282 1033.63 191.618 1034.37 192.29C1035.13 192.962 1035.51 193.826 1035.51 194.882C1035.51 195.59 1035.34 196.226 1035 196.79C1034.67 197.354 1034.16 197.798 1033.47 198.122C1032.8 198.446 1031.95 198.608 1030.93 198.608ZM1042.5 198.608C1041.38 198.608 1040.44 198.362 1039.67 197.87C1038.9 197.366 1038.32 196.646 1037.93 195.71C1037.53 194.762 1037.33 193.628 1037.33 192.308C1037.33 190.88 1037.57 189.686 1038.05 188.726C1038.54 187.754 1039.22 187.022 1040.09 186.53C1040.95 186.038 1041.95 185.792 1043.09 185.792C1043.66 185.792 1044.2 185.846 1044.71 185.954C1045.23 186.062 1045.68 186.236 1046.08 186.476L1045.56 187.52C1045.23 187.304 1044.86 187.154 1044.44 187.07C1044.02 186.974 1043.58 186.926 1043.11 186.926C1041.75 186.926 1040.67 187.358 1039.85 188.222C1039.05 189.086 1038.65 190.376 1038.65 192.092C1038.65 192.356 1038.66 192.686 1038.68 193.082C1038.72 193.466 1038.79 193.85 1038.9 194.234L1038.45 193.892C1038.58 193.268 1038.84 192.74 1039.22 192.308C1039.61 191.864 1040.09 191.528 1040.66 191.3C1041.24 191.072 1041.87 190.958 1042.55 190.958C1043.39 190.958 1044.13 191.114 1044.77 191.426C1045.4 191.738 1045.9 192.176 1046.26 192.74C1046.62 193.304 1046.8 193.97 1046.8 194.738C1046.8 195.518 1046.61 196.202 1046.24 196.79C1045.87 197.366 1045.35 197.816 1044.69 198.14C1044.05 198.452 1043.31 198.608 1042.5 198.608ZM1042.44 197.51C1043.04 197.51 1043.57 197.402 1044.03 197.186C1044.5 196.958 1044.86 196.64 1045.13 196.232C1045.39 195.812 1045.52 195.326 1045.52 194.774C1045.52 193.946 1045.23 193.286 1044.66 192.794C1044.09 192.302 1043.33 192.056 1042.35 192.056C1041.71 192.056 1041.14 192.176 1040.66 192.416C1040.18 192.656 1039.8 192.986 1039.53 193.406C1039.25 193.814 1039.11 194.282 1039.11 194.81C1039.11 195.266 1039.24 195.704 1039.49 196.124C1039.74 196.532 1040.12 196.868 1040.61 197.132C1041.11 197.384 1041.72 197.51 1042.44 197.51ZM1050.5 198.5V186.44L1051.07 187.052H1047.53V185.9H1051.79V198.5H1050.5Z" fill="black"/>
<rect x="132.5" y="33.5" width="120" height="120" rx="20" fill="#F7F4B7"/>
<path d="M159.212 197.5L160.76 184.9H161.732L160.184 197.5H159.212ZM152.39 194.08V193.09H163.28V194.08H152.39ZM154.532 197.5L156.08 184.9H157.07L155.504 197.5H154.532ZM152.966 189.31V188.32H163.856V189.31H152.966ZM167.641 191.002H174.301V192.154H167.641V191.002ZM167.785 197.5H166.453V184.9H175.093V186.052H167.785V197.5ZM179.118 197.5L184.554 185.476L184.95 186.052H177.156L177.822 185.422V188.41H176.544V184.9H185.796V185.818L180.522 197.5H179.118ZM189.807 191.002H196.467V192.154H189.807V191.002ZM189.951 197.5H188.619V184.9H197.259V186.052H189.951V197.5ZM197.782 194.188V193.252L204.46 184.9H205.9L199.276 193.252L198.574 193.036H208.708V194.188H197.782ZM204.892 197.5V194.188L204.928 193.036V190.12H206.188V197.5H204.892ZM211.014 197.5V184.9H216.45C217.854 184.9 218.94 185.182 219.708 185.746C220.488 186.31 220.878 187.108 220.878 188.14C220.878 188.824 220.716 189.4 220.392 189.868C220.08 190.336 219.648 190.69 219.096 190.93C218.556 191.17 217.962 191.29 217.314 191.29L217.62 190.858C218.424 190.858 219.114 190.984 219.69 191.236C220.278 191.476 220.734 191.842 221.058 192.334C221.382 192.814 221.544 193.414 221.544 194.134C221.544 195.202 221.148 196.03 220.356 196.618C219.576 197.206 218.394 197.5 216.81 197.5H211.014ZM212.346 196.402H216.792C217.896 196.402 218.742 196.216 219.33 195.844C219.918 195.46 220.212 194.854 220.212 194.026C220.212 193.21 219.918 192.616 219.33 192.244C218.742 191.86 217.896 191.668 216.792 191.668H212.202V190.57H216.36C217.368 190.57 218.148 190.378 218.7 189.994C219.264 189.61 219.546 189.04 219.546 188.284C219.546 187.516 219.264 186.946 218.7 186.574C218.148 186.19 217.368 185.998 216.36 185.998H212.346V196.402ZM225.682 197.5L231.118 185.476L231.514 186.052H223.72L224.386 185.422V188.41H223.108V184.9H232.36V185.818L227.086 197.5H225.682Z" fill="black"/>
<rect x="297.5" y="33.5" width="120" height="120" rx="20" fill="#746015"/>
<path d="M328.123 197.5L329.671 184.9H330.643L329.095 197.5H328.123ZM321.301 194.08V193.09H332.191V194.08H321.301ZM323.443 197.5L324.991 184.9H325.981L324.415 197.5H323.443ZM321.877 189.31V188.32H332.767V189.31H321.877ZM336.463 197.5L341.899 185.476L342.295 186.052H334.5L335.167 185.422V188.41H333.889V184.9H343.141V185.818L337.867 197.5H336.463ZM343.454 194.188V193.252L350.132 184.9H351.572L344.948 193.252L344.246 193.036H354.38V194.188H343.454ZM350.564 197.5V194.188L350.6 193.036V190.12H351.86V197.5H350.564ZM360.737 197.608C359.621 197.608 358.679 197.362 357.911 196.87C357.143 196.366 356.561 195.646 356.165 194.71C355.769 193.762 355.571 192.628 355.571 191.308C355.571 189.88 355.811 188.686 356.291 187.726C356.783 186.754 357.461 186.022 358.325 185.53C359.189 185.038 360.191 184.792 361.331 184.792C361.895 184.792 362.435 184.846 362.951 184.954C363.467 185.062 363.923 185.236 364.319 185.476L363.797 186.52C363.473 186.304 363.101 186.154 362.681 186.07C362.261 185.974 361.817 185.926 361.349 185.926C359.993 185.926 358.907 186.358 358.091 187.222C357.287 188.086 356.885 189.376 356.885 191.092C356.885 191.356 356.897 191.686 356.921 192.082C356.957 192.466 357.029 192.85 357.137 193.234L356.687 192.892C356.819 192.268 357.077 191.74 357.461 191.308C357.845 190.864 358.325 190.528 358.901 190.3C359.477 190.072 360.107 189.958 360.791 189.958C361.631 189.958 362.369 190.114 363.005 190.426C363.641 190.738 364.139 191.176 364.499 191.74C364.859 192.304 365.039 192.97 365.039 193.738C365.039 194.518 364.853 195.202 364.481 195.79C364.109 196.366 363.593 196.816 362.933 197.14C362.285 197.452 361.553 197.608 360.737 197.608ZM360.683 196.51C361.283 196.51 361.811 196.402 362.267 196.186C362.735 195.958 363.101 195.64 363.365 195.232C363.629 194.812 363.761 194.326 363.761 193.774C363.761 192.946 363.473 192.286 362.897 191.794C362.333 191.302 361.565 191.056 360.593 191.056C359.945 191.056 359.381 191.176 358.901 191.416C358.421 191.656 358.043 191.986 357.767 192.406C357.491 192.814 357.353 193.282 357.353 193.81C357.353 194.266 357.479 194.704 357.731 195.124C357.983 195.532 358.355 195.868 358.847 196.132C359.351 196.384 359.963 196.51 360.683 196.51ZM371.562 197.608C370.59 197.608 369.726 197.356 368.97 196.852C368.214 196.336 367.62 195.604 367.188 194.656C366.756 193.696 366.54 192.544 366.54 191.2C366.54 189.856 366.756 188.71 367.188 187.762C367.62 186.802 368.214 186.07 368.97 185.566C369.726 185.05 370.59 184.792 371.562 184.792C372.534 184.792 373.398 185.05 374.154 185.566C374.91 186.07 375.504 186.802 375.936 187.762C376.38 188.71 376.602 189.856 376.602 191.2C376.602 192.544 376.38 193.696 375.936 194.656C375.504 195.604 374.91 196.336 374.154 196.852C373.398 197.356 372.534 197.608 371.562 197.608ZM371.562 196.42C372.306 196.42 372.954 196.222 373.506 195.826C374.058 195.418 374.49 194.83 374.802 194.062C375.114 193.282 375.27 192.328 375.27 191.2C375.27 190.072 375.114 189.124 374.802 188.356C374.49 187.576 374.058 186.988 373.506 186.592C372.954 186.184 372.306 185.98 371.562 185.98C370.842 185.98 370.2 186.184 369.636 186.592C369.072 186.988 368.634 187.576 368.322 188.356C368.01 189.124 367.854 190.072 367.854 191.2C367.854 192.328 368.01 193.282 368.322 194.062C368.634 194.83 369.072 195.418 369.636 195.826C370.2 196.222 370.842 196.42 371.562 196.42ZM380.653 197.5V185.44L381.229 186.052H377.683V184.9H381.949V197.5H380.653ZM388.939 197.608C388.039 197.608 387.181 197.464 386.365 197.176C385.549 196.876 384.901 196.48 384.421 195.988L385.051 194.962C385.447 195.382 385.987 195.73 386.671 196.006C387.367 196.282 388.117 196.42 388.921 196.42C389.989 196.42 390.799 196.186 391.351 195.718C391.915 195.238 392.197 194.614 392.197 193.846C392.197 193.306 392.065 192.844 391.801 192.46C391.549 192.064 391.117 191.758 390.505 191.542C389.893 191.326 389.053 191.218 387.985 191.218H385.303L385.951 184.9H392.845V186.052H386.473L387.139 185.422L386.581 190.714L385.915 190.066H388.273C389.545 190.066 390.565 190.222 391.333 190.534C392.101 190.846 392.653 191.284 392.989 191.848C393.337 192.4 393.511 193.048 393.511 193.792C393.511 194.5 393.343 195.148 393.007 195.736C392.671 196.312 392.167 196.768 391.495 197.104C390.823 197.44 389.971 197.608 388.939 197.608Z" fill="black"/>
<rect x="462.5" y="33.5" width="120" height="120" rx="20" fill="#C6D552"/>
<path d="M489.177 197.5L490.725 184.9H491.697L490.149 197.5H489.177ZM482.355 194.08V193.09H493.245V194.08H482.355ZM484.497 197.5L486.045 184.9H487.035L485.469 197.5H484.497ZM482.931 189.31V188.32H493.821V189.31H482.931ZM501.89 197.608C500.942 197.608 500.066 197.452 499.262 197.14C498.458 196.816 497.762 196.366 497.174 195.79C496.586 195.214 496.124 194.536 495.788 193.756C495.464 192.976 495.302 192.124 495.302 191.2C495.302 190.276 495.464 189.424 495.788 188.644C496.124 187.864 496.586 187.186 497.174 186.61C497.774 186.034 498.476 185.59 499.28 185.278C500.084 184.954 500.96 184.792 501.908 184.792C502.82 184.792 503.678 184.948 504.482 185.26C505.286 185.56 505.964 186.016 506.516 186.628L505.67 187.474C505.154 186.946 504.584 186.568 503.96 186.34C503.336 186.1 502.664 185.98 501.944 185.98C501.188 185.98 500.486 186.112 499.838 186.376C499.19 186.628 498.626 186.994 498.146 187.474C497.666 187.942 497.288 188.494 497.012 189.13C496.748 189.754 496.616 190.444 496.616 191.2C496.616 191.956 496.748 192.652 497.012 193.288C497.288 193.912 497.666 194.464 498.146 194.944C498.626 195.412 499.19 195.778 499.838 196.042C500.486 196.294 501.188 196.42 501.944 196.42C502.664 196.42 503.336 196.3 503.96 196.06C504.584 195.82 505.154 195.436 505.67 194.908L506.516 195.754C505.964 196.366 505.286 196.828 504.482 197.14C503.678 197.452 502.814 197.608 501.89 197.608ZM512.984 197.608C511.868 197.608 510.926 197.362 510.158 196.87C509.39 196.366 508.808 195.646 508.412 194.71C508.016 193.762 507.818 192.628 507.818 191.308C507.818 189.88 508.058 188.686 508.538 187.726C509.03 186.754 509.708 186.022 510.572 185.53C511.436 185.038 512.438 184.792 513.578 184.792C514.142 184.792 514.682 184.846 515.198 184.954C515.714 185.062 516.17 185.236 516.566 185.476L516.044 186.52C515.72 186.304 515.348 186.154 514.928 186.07C514.508 185.974 514.064 185.926 513.596 185.926C512.24 185.926 511.154 186.358 510.338 187.222C509.534 188.086 509.132 189.376 509.132 191.092C509.132 191.356 509.144 191.686 509.168 192.082C509.204 192.466 509.276 192.85 509.384 193.234L508.934 192.892C509.066 192.268 509.324 191.74 509.708 191.308C510.092 190.864 510.572 190.528 511.148 190.3C511.724 190.072 512.354 189.958 513.038 189.958C513.878 189.958 514.616 190.114 515.252 190.426C515.888 190.738 516.386 191.176 516.746 191.74C517.106 192.304 517.286 192.97 517.286 193.738C517.286 194.518 517.1 195.202 516.728 195.79C516.356 196.366 515.84 196.816 515.18 197.14C514.532 197.452 513.8 197.608 512.984 197.608ZM512.93 196.51C513.53 196.51 514.058 196.402 514.514 196.186C514.982 195.958 515.348 195.64 515.612 195.232C515.876 194.812 516.008 194.326 516.008 193.774C516.008 192.946 515.72 192.286 515.144 191.794C514.58 191.302 513.812 191.056 512.84 191.056C512.192 191.056 511.628 191.176 511.148 191.416C510.668 191.656 510.29 191.986 510.014 192.406C509.738 192.814 509.6 193.282 509.6 193.81C509.6 194.266 509.726 194.704 509.978 195.124C510.23 195.532 510.602 195.868 511.094 196.132C511.598 196.384 512.21 196.51 512.93 196.51ZM519.903 197.5V184.9H525.033C526.377 184.9 527.553 185.17 528.561 185.71C529.581 186.238 530.373 186.976 530.937 187.924C531.501 188.872 531.783 189.964 531.783 191.2C531.783 192.436 531.501 193.528 530.937 194.476C530.373 195.424 529.581 196.168 528.561 196.708C527.553 197.236 526.377 197.5 525.033 197.5H519.903ZM521.235 196.348H524.961C526.077 196.348 527.043 196.132 527.859 195.7C528.687 195.256 529.329 194.65 529.785 193.882C530.241 193.102 530.469 192.208 530.469 191.2C530.469 190.18 530.241 189.286 529.785 188.518C529.329 187.75 528.687 187.15 527.859 186.718C527.043 186.274 526.077 186.052 524.961 186.052H521.235V196.348ZM537.636 197.608C536.736 197.608 535.878 197.464 535.062 197.176C534.246 196.876 533.598 196.48 533.118 195.988L533.748 194.962C534.144 195.382 534.684 195.73 535.368 196.006C536.064 196.282 536.814 196.42 537.618 196.42C538.686 196.42 539.496 196.186 540.048 195.718C540.612 195.238 540.894 194.614 540.894 193.846C540.894 193.306 540.762 192.844 540.498 192.46C540.246 192.064 539.814 191.758 539.202 191.542C538.59 191.326 537.75 191.218 536.682 191.218H534L534.648 184.9H541.542V186.052H535.17L535.836 185.422L535.278 190.714L534.612 190.066H536.97C538.242 190.066 539.262 190.222 540.03 190.534C540.798 190.846 541.35 191.284 541.686 191.848C542.034 192.4 542.208 193.048 542.208 193.792C542.208 194.5 542.04 195.148 541.704 195.736C541.368 196.312 540.864 196.768 540.192 197.104C539.52 197.44 538.668 197.608 537.636 197.608ZM547.743 197.608C546.843 197.608 545.985 197.464 545.169 197.176C544.353 196.876 543.705 196.48 543.225 195.988L543.855 194.962C544.251 195.382 544.791 195.73 545.475 196.006C546.171 196.282 546.921 196.42 547.725 196.42C548.793 196.42 549.603 196.186 550.155 195.718C550.719 195.238 551.001 194.614 551.001 193.846C551.001 193.306 550.869 192.844 550.605 192.46C550.353 192.064 549.921 191.758 549.309 191.542C548.697 191.326 547.857 191.218 546.789 191.218H544.107L544.755 184.9H551.649V186.052H545.277L545.943 185.422L545.385 190.714L544.719 190.066H547.077C548.349 190.066 549.369 190.222 550.137 190.534C550.905 190.846 551.457 191.284 551.793 191.848C552.141 192.4 552.315 193.048 552.315 193.792C552.315 194.5 552.147 195.148 551.811 195.736C551.475 196.312 550.971 196.768 550.299 197.104C549.627 197.44 548.775 197.608 547.743 197.608ZM553.639 197.5V196.582L558.877 191.452C559.357 190.984 559.717 190.576 559.957 190.228C560.197 189.868 560.359 189.532 560.443 189.22C560.527 188.908 560.569 188.614 560.569 188.338C560.569 187.606 560.317 187.03 559.813 186.61C559.321 186.19 558.589 185.98 557.617 185.98C556.873 185.98 556.213 186.094 555.637 186.322C555.073 186.55 554.587 186.904 554.179 187.384L553.261 186.592C553.753 186.016 554.383 185.572 555.151 185.26C555.919 184.948 556.777 184.792 557.725 184.792C558.577 184.792 559.315 184.93 559.939 185.206C560.563 185.47 561.043 185.86 561.379 186.376C561.727 186.892 561.901 187.498 561.901 188.194C561.901 188.602 561.841 189.004 561.721 189.4C561.613 189.796 561.409 190.216 561.109 190.66C560.821 191.092 560.395 191.584 559.831 192.136L555.025 196.852L554.665 196.348H562.477V197.5H553.639Z" fill="black"/>
<rect x="627.5" y="33.5" width="120" height="120" rx="20" fill="#67A020"/>
<path d="M655.056 197.5L656.604 184.9H657.576L656.028 197.5H655.056ZM648.234 194.08V193.09H659.124V194.08H648.234ZM650.376 197.5L651.924 184.9H652.914L651.348 197.5H650.376ZM648.81 189.31V188.32H659.7V189.31H648.81ZM666.347 197.608C665.231 197.608 664.289 197.362 663.521 196.87C662.753 196.366 662.171 195.646 661.775 194.71C661.379 193.762 661.181 192.628 661.181 191.308C661.181 189.88 661.421 188.686 661.901 187.726C662.393 186.754 663.071 186.022 663.935 185.53C664.799 185.038 665.801 184.792 666.941 184.792C667.505 184.792 668.045 184.846 668.561 184.954C669.077 185.062 669.533 185.236 669.929 185.476L669.407 186.52C669.083 186.304 668.711 186.154 668.291 186.07C667.871 185.974 667.427 185.926 666.959 185.926C665.603 185.926 664.517 186.358 663.701 187.222C662.897 188.086 662.495 189.376 662.495 191.092C662.495 191.356 662.507 191.686 662.531 192.082C662.567 192.466 662.639 192.85 662.747 193.234L662.297 192.892C662.429 192.268 662.687 191.74 663.071 191.308C663.455 190.864 663.935 190.528 664.511 190.3C665.087 190.072 665.717 189.958 666.401 189.958C667.241 189.958 667.979 190.114 668.615 190.426C669.251 190.738 669.749 191.176 670.109 191.74C670.469 192.304 670.649 192.97 670.649 193.738C670.649 194.518 670.463 195.202 670.091 195.79C669.719 196.366 669.203 196.816 668.543 197.14C667.895 197.452 667.163 197.608 666.347 197.608ZM666.293 196.51C666.893 196.51 667.421 196.402 667.877 196.186C668.345 195.958 668.711 195.64 668.975 195.232C669.239 194.812 669.371 194.326 669.371 193.774C669.371 192.946 669.083 192.286 668.507 191.794C667.943 191.302 667.175 191.056 666.203 191.056C665.555 191.056 664.991 191.176 664.511 191.416C664.031 191.656 663.653 191.986 663.377 192.406C663.101 192.814 662.963 193.282 662.963 193.81C662.963 194.266 663.089 194.704 663.341 195.124C663.593 195.532 663.965 195.868 664.457 196.132C664.961 196.384 665.573 196.51 666.293 196.51ZM674.223 197.5L679.659 185.476L680.055 186.052H672.261L672.927 185.422V188.41H671.649V184.9H680.901V185.818L675.627 197.5H674.223ZM680.514 197.5L686.274 184.9H687.588L693.348 197.5H691.944L686.652 185.674H687.192L681.9 197.5H680.514ZM682.782 194.134L683.178 193.054H690.504L690.9 194.134H682.782ZM699.215 197.608C698.243 197.608 697.379 197.356 696.623 196.852C695.867 196.336 695.273 195.604 694.841 194.656C694.409 193.696 694.193 192.544 694.193 191.2C694.193 189.856 694.409 188.71 694.841 187.762C695.273 186.802 695.867 186.07 696.623 185.566C697.379 185.05 698.243 184.792 699.215 184.792C700.187 184.792 701.051 185.05 701.807 185.566C702.563 186.07 703.157 186.802 703.589 187.762C704.033 188.71 704.255 189.856 704.255 191.2C704.255 192.544 704.033 193.696 703.589 194.656C703.157 195.604 702.563 196.336 701.807 196.852C701.051 197.356 700.187 197.608 699.215 197.608ZM699.215 196.42C699.959 196.42 700.607 196.222 701.159 195.826C701.711 195.418 702.143 194.83 702.455 194.062C702.767 193.282 702.923 192.328 702.923 191.2C702.923 190.072 702.767 189.124 702.455 188.356C702.143 187.576 701.711 186.988 701.159 186.592C700.607 186.184 699.959 185.98 699.215 185.98C698.495 185.98 697.853 186.184 697.289 186.592C696.725 186.988 696.287 187.576 695.975 188.356C695.663 189.124 695.507 190.072 695.507 191.2C695.507 192.328 695.663 193.282 695.975 194.062C696.287 194.83 696.725 195.418 697.289 195.826C697.853 196.222 698.495 196.42 699.215 196.42ZM705.877 197.5V196.582L711.115 191.452C711.595 190.984 711.955 190.576 712.195 190.228C712.435 189.868 712.597 189.532 712.681 189.22C712.765 188.908 712.807 188.614 712.807 188.338C712.807 187.606 712.555 187.03 712.051 186.61C711.559 186.19 710.827 185.98 709.855 185.98C709.111 185.98 708.451 186.094 707.875 186.322C707.311 186.55 706.825 186.904 706.417 187.384L705.499 186.592C705.991 186.016 706.621 185.572 707.389 185.26C708.157 184.948 709.015 184.792 709.963 184.792C710.815 184.792 711.553 184.93 712.177 185.206C712.801 185.47 713.281 185.86 713.617 186.376C713.965 186.892 714.139 187.498 714.139 188.194C714.139 188.602 714.079 189.004 713.959 189.4C713.851 189.796 713.647 190.216 713.347 190.66C713.059 191.092 712.633 191.584 712.069 192.136L707.263 196.852L706.903 196.348H714.715V197.5H705.877ZM721.328 197.608C720.356 197.608 719.492 197.356 718.736 196.852C717.98 196.336 717.386 195.604 716.954 194.656C716.522 193.696 716.306 192.544 716.306 191.2C716.306 189.856 716.522 188.71 716.954 187.762C717.386 186.802 717.98 186.07 718.736 185.566C719.492 185.05 720.356 184.792 721.328 184.792C722.3 184.792 723.164 185.05 723.92 185.566C724.676 186.07 725.27 186.802 725.702 187.762C726.146 188.71 726.368 189.856 726.368 191.2C726.368 192.544 726.146 193.696 725.702 194.656C725.27 195.604 724.676 196.336 723.92 196.852C723.164 197.356 722.3 197.608 721.328 197.608ZM721.328 196.42C722.072 196.42 722.72 196.222 723.272 195.826C723.824 195.418 724.256 194.83 724.568 194.062C724.88 193.282 725.036 192.328 725.036 191.2C725.036 190.072 724.88 189.124 724.568 188.356C724.256 187.576 723.824 186.988 723.272 186.592C722.72 186.184 722.072 185.98 721.328 185.98C720.608 185.98 719.966 186.184 719.402 186.592C718.838 186.988 718.4 187.576 718.088 188.356C717.776 189.124 717.62 190.072 717.62 191.2C717.62 192.328 717.776 193.282 718.088 194.062C718.4 194.83 718.838 195.418 719.402 195.826C719.966 196.222 720.608 196.42 721.328 196.42Z" fill="black"/>
</svg>
