<?xml version="1.0" encoding="UTF-8"?><svg id="Layer_2" xmlns="http://www.w3.org/2000/svg" viewBox="0 0 70.57 47.26"><defs><style>.cls-1{fill:#6a88b1;}.cls-2{fill:#fcfcfc;}.cls-3{fill:#06255b;}</style></defs><g id="Color_Palette"><path class="cls-1" d="M33.12,10.86c0,.61-.03,1.27-.09,1.98-1.96,2.96-4.46,9.19-4.78,10.47-6.59,22.95-14.64,22.31-16.97,22.44h-.01c-.41-.22-.81-.48-1.19-.78-1.4-1.09-2.65-2.54-3.75-4.34-1.09-1.81-2.03-3.84-2.81-6.11-.79-2.25-1.44-4.56-1.95-6.91-.51-2.35-.89-4.6-1.14-6.73-.26-2.14-.39-3.97-.39-5.5C.04,15.38-.26,7.26.76,4.45,1.77,1.63,3.89-.37,8.53.06c.94.08,7.05.12,8.57,8.34.67,3.64-.21,5.48-1.54,6.16-.03,0-.05.02-.07.03-1.44.83-3.08.53-4.45-.23-.1-.05-.19-.1-.29-.16.05.29.09.59.12.91.06.49.13,1,.2,1.52.12.89.26,1.81.41,2.76.14.87.29,1.76.46,2.67.46,2.48.99,5.02,1.62,7.63.2.84.4,1.68.62,2.52.26,1.04.52,2.08.8,3.11.19.74.4,1.47.6,2.21h.22s.02-.04.02-.07c.69-1.91,1.34-3.89,1.97-5.94.64-2.08,1.25-4.17,1.84-6.26.58-2.1,1.1-4.14,1.56-6.1.45-1.97.83-3.81,1.12-5.53.54-2.66,1.98-7.68,2.71-8.96.73-1.27,1.88-1.91,3.45-1.91s2.82.67,3.55,2.02,1.1,3.38,1.1,6.08Z"/><path class="cls-3" d="M11.69,41.33c-.91-.64-1.87-1.61-2.79-2.79-1.38-1.76-2.65-4-3.5-6.32-.57-1.86-1.05-3.57-1.47-5.15h0c-.23-.87-.43-1.7-.62-2.48h0c-.7-2.95-1.11-5.35-1.31-7.3-.17-1.55-.19-2.82-.13-3.84.33-5.04,2.98-4.17,3.41-2.93,1.21,3.52,3.87,2.54,5.73,3.67,0,.05.02.11.02.16-.1-.05-.19-.1-.29-.16.05.29.09.6.12.91.06.5.13,1,.19,1.52h0c.12.9.26,1.81.41,2.77.14.86.29,1.76.46,2.67.46,2.48.99,5.02,1.62,7.63.2.84.4,1.68.62,2.52.26,1.04.52,2.08.81,3.11.19.74.39,1.48.6,2.21h.22s.02-.05.03-.07c0,.02.01.05.02.07.23,4.92-1.77,5.49-4.15,3.8Z"/><ellipse class="cls-2" cx="9.72" cy="9.3" rx="1.16" ry="2.35"/><ellipse class="cls-3" cx="9.42" cy="8.7" rx="1.11" ry="2.26"/><path class="cls-3" d="M34.58,11.25c-.26,1.52-.48,3.18-.67,4.99-.09.85-.16,1.71-.22,2.57-.17,2.32-.26,4.69-.26,7.11v.1c-2.3,2.22-4.55,5.18-6.61,9.12-.02.03-.03.07-.05.1,0,.02-.01.03-.02.05-.07.15-.15.31-.23.46,0,.02-.01.03-.02.05-.03.06-.06.12-.09.18-.24.47-.46.95-.69,1.44-6.29,11.76-12.6,9.3-13.17,9.04-.03-.01-1.28-.71-1.28-.71h.01c2.33-.13,10.38.51,16.97-22.44.32-1.28,2.82-7.51,4.78-10.47.51-.77.97-1.32,1.36-1.5.06-.03.13-.06.19-.09Z"/><path class="cls-1" d="M63.63,39.39c-.06.37-.13.74-.21,1.08-.08.4.31.75.7.59.09-.04.19-.09.28-.14-3.08,1.93-5.8.35-5.99-3.31-.22-4.09-3.46-8.85-6.57-10.93-1.45-1.28-3.07-1.66-4.43-1.35-.32.08-.63.17-.91.28-2.01.75-3.15,2.87-2.73,4.97.03.12.05.25.08.38.43,2.22.65,4.45.65,6.67,0,2.95-.54,5.13-1.62,6.52-1.08,1.4-2.51,2.09-4.28,2.09-1.14,0-2.05-.4-2.73-1.21s-1.19-2.26-1.53-4.37c-.27-1.73-.48-3.91-.65-6.52-.17-2.58-.26-5.29-.26-8.12v-.1c0-2.42.09-4.79.26-7.11.06-.86.13-1.72.22-2.57.19-1.81.41-3.47.67-4.99.18-1.11.39-2.15.61-3.11.53-2.3,1.24-4.04,2.13-5.21.89-1.18,2.07-1.77,3.55-1.77,1.24,0,2.2.55,2.86,1.64.67,1.09,1,2.8,1,5.1,0,1.9-.2,4.04-.6,6.43-.17,1.03-.37,2.03-.61,3-.06.23-.12.46-.18.69-.14.54.42.97.91.71,1.31-.69,2.98-1.11,4.82-1,2,.11,3.46.83,4.42,1.51.24.17.51.14.71.01.2-.14.32-.37.27-.64-.25-1.36-.44-2.72-.58-4.07-.2-2.04-.31-3.85-.31-5.43,0-2.22.34-3.86,1.03-4.91.67-1.05,1.75-1.58,3.23-1.58s2.67.55,3.58,1.64c.9,1.09,1.57,2.77,1.98,5.03.34,1.75.65,3.83.91,6.25.27,2.43.4,4.92.4,7.47,0,2.75-.09,5.55-.26,8.4-.17,2.85-.44,5.51-.82,7.98Z"/><path class="cls-3" d="M68.95,41.5c-.52.8-1.15,1.62-1.88,2.38-.95.98-2.05,1.86-3.25,2.43-1.15.55-3.24,1.17-5.27.88h0c-1.34-.18-2.67-.76-3.68-2.01-1.4-1.71-2.22-4.68-1.72-9.63.01-.16.03-.33.05-.49h0c.05-.72.12-1.45.22-2.19.06-.48.12-.97.2-1.46,0-.09.03-.19.05-.28.19-1.2-.09-2.44-.85-3.41-.31-.39-.63-.74-.97-1.04,3.11,2.08,6.35,6.84,6.57,10.93.19,3.66,2.91,5.24,5.99,3.31.93-.47,1.79-1.28,2.81-2.29,4.18-4.14,4.09-.76,1.74,2.87Z"/></g></svg>